<svg width="24" height="24" viewBox="0 0 24 24" fill="none" xmlns="http://www.w3.org/2000/svg">
<path d="M17.8333 1.8967C19.593 2.9127 21.0568 4.37065 22.0798 6.12622C23.1028 7.88179 23.6496 9.87411 23.666 11.9059C23.6824 13.9378 23.1679 15.9387 22.1734 17.7105C21.1788 19.4824 19.7388 20.9638 17.9958 22.0081C16.2528 23.0524 14.2673 23.6233 12.2358 23.6644C10.2043 23.7056 8.19732 23.2154 6.41349 22.2425C4.62966 21.2696 3.13086 19.8477 2.06545 18.1175C1.00005 16.3873 0.404988 14.4089 0.339177 12.378L0.333344 12L0.339177 11.622C0.404514 9.60719 0.990816 7.64366 2.04092 5.92286C3.09103 4.20207 4.56911 2.78273 6.33105 1.80323C8.09299 0.823736 10.0787 0.3175 12.0945 0.333881C14.1104 0.350263 16.0875 0.888701 17.8333 1.8967ZM16.3248 8.84187C16.1239 8.641 15.8567 8.52033 15.5731 8.5025C15.2896 8.48467 15.0093 8.57091 14.7848 8.74504L14.6752 8.84187L10.8333 12.6825L9.32484 11.1752L9.21518 11.0784C8.99069 10.9044 8.71044 10.8182 8.42698 10.8361C8.14352 10.854 7.87632 10.9747 7.67548 11.1755C7.47465 11.3763 7.35397 11.6435 7.33609 11.927C7.3182 12.2105 7.40434 12.4907 7.57834 12.7152L7.67518 12.8249L10.0085 15.1582L10.1182 15.255C10.3228 15.4138 10.5744 15.4999 10.8333 15.4999C11.0923 15.4999 11.3439 15.4138 11.5485 15.255L11.6582 15.1582L16.3248 10.4915L16.4217 10.3819C16.5958 10.1574 16.682 9.87711 16.6642 9.59358C16.6464 9.31005 16.5257 9.04276 16.3248 8.84187Z" fill="#0BBDAF"/>
</svg>
